<?xml version="1.0" encoding="utf-8"?>
<!-- Generator: Adobe Illustrator 16.0.0, SVG Export Plug-In . SVG Version: 6.00 Build 0)  -->
<!DOCTYPE svg PUBLIC "-//W3C//DTD SVG 1.1//EN" "http://www.w3.org/Graphics/SVG/1.1/DTD/svg11.dtd">
<svg version="1.1" id="Ebene_1" xmlns:svg="http://www.w3.org/2000/svg"
	 xmlns="http://www.w3.org/2000/svg" xmlns:xlink="http://www.w3.org/1999/xlink" x="0px" y="0px" width="20.672px"
	 height="25.675px" viewBox="0 0 20.672 25.675" enable-background="new 0 0 20.672 25.675" xml:space="preserve">
<g id="copper1">
	<rect id="connector4pad" x="15.985" y="12.217" fill="#F7BD13" width="3.916" height="1.275"/>
	<rect id="connector5pad" x="15.985" y="10.372" fill="#F7BD13" width="3.916" height="1.276"/>
	<rect id="connector6pad" x="15.985" y="15.904" fill="#F7BD13" width="3.916" height="1.277"/>
	<rect id="connector7pad" x="15.985" y="14.06" fill="#F7BD13" width="3.916" height="1.276"/>
	<rect id="connector8pad" x="15.985" y="8.529" fill="#F7BD13" width="3.916" height="1.275"/>
	<g id="copper0">
		<circle id="nonconn2" cx="14.85" cy="5.723" r="1.134"/>
		<circle id="nonconn3" cx="14.85" cy="20.003" r="1.134"/>
		<g id="connector3pad">
			<circle fill="none" stroke="#F7BD13" stroke-miterlimit="10" cx="18.473" cy="23.515" r="1.58"/>
			<circle fill="none" stroke="#F7BD13" stroke-miterlimit="10" cx="17.036" cy="23.515" r="1.58"/>
		</g>
		<g id="connector1pad">
			<circle fill="none" stroke="#F7BD13" stroke-miterlimit="10" cx="18.473" cy="2.141" r="1.58"/>
			<circle fill="none" stroke="#F7BD13" stroke-miterlimit="10" cx="17.036" cy="2.141" r="1.58"/>
		</g>
		<g id="connector2pad">
			<circle fill="none" stroke="#F7BD13" stroke-miterlimit="10" cx="6.108" cy="23.943" r="1.235"/>
			<circle fill="none" stroke="#F7BD13" stroke-miterlimit="10" cx="7.813" cy="23.943" r="1.235"/>
		</g>
		<g id="connector0pad">
			<circle fill="none" stroke="#F7BD13" stroke-miterlimit="10" cx="6.108" cy="1.974" r="1.235"/>
			<circle fill="none" stroke="#F7BD13" stroke-miterlimit="10" cx="7.813" cy="1.974" r="1.235"/>
		</g>
	</g>
</g>
<g id="silkscreen">
	<line fill="none" stroke="#F0F0F0" stroke-width="0.2032" stroke-linecap="round" x1="9.941" y1="2.244" x2="14.128" y2="2.244"/>
	<line fill="none" stroke="#F0F0F0" stroke-width="0.2032" stroke-linecap="round" x1="18.901" y1="4.895" x2="18.901" y2="7.252"/>
	
		<line fill="none" stroke="#F0F0F0" stroke-width="0.2032" stroke-linecap="round" x1="18.901" y1="18.779" x2="18.901" y2="21.136"/>
	
		<line fill="none" stroke="#F0F0F0" stroke-width="0.2032" stroke-linecap="round" x1="14.128" y1="23.787" x2="9.941" y2="23.787"/>
	<polyline fill="none" stroke="#F0F0F0" stroke-width="0.2032" stroke-linecap="round" points="4.068,23.308 0.151,23.308 
		0.151,2.474 4.068,2.474 	"/>
</g>
</svg>
