<?xml version='1.0' encoding='UTF-8' standalone='no'?>
<!-- Generator: Adobe Illustrator 16.0.0, SVG Export Plug-In . SVG Version: 6.00 Build 0)  -->
<svg xmlns="http://www.w3.org/2000/svg" version="1.2" xml:space="preserve" x="0px" y="0px" viewBox="0 0 230.31496 106.29921" width="65mm" xmlns:xml="http://www.w3.org/XML/1998/namespace" gorn="0" height="30mm"  id="Layer_1">
    <desc >
        <referenceFile >Raspberry_pi_zero_v1.1_pcb.svg</referenceFile>
    </desc>
    <metadata  id="metadata50">
        <rdf:RDF xmlns:rdf="http://www.w3.org/1999/02/22-rdf-syntax-ns#">
            <cc:Work rdf:about="" xmlns:rdf="http://www.w3.org/1999/02/22-rdf-syntax-ns#" xmlns:cc="http://creativecommons.org/ns#">
                <dc:format xmlns:dc="http://purl.org/dc/elements/1.1/">image/svg+xml</dc:format>
                <dc:type rdf:resource="http://purl.org/dc/dcmitype/StillImage" xmlns:dc="http://purl.org/dc/elements/1.1/" xmlns:rdf="http://www.w3.org/1999/02/22-rdf-syntax-ns#"/>
                <dc:title xmlns:dc="http://purl.org/dc/elements/1.1/"/>
            </cc:Work>
        </rdf:RDF>
    </metadata>
    <defs  id="defs48"/>
    <path d="m 221.65665,0.48472497 -212.77765,0 c -4.677,0 -8.48828068,3.82702643 -8.504,8.50400003 L 0.07814038,97.313439 c -0.01572269,4.677971 3.82700002,8.504001 8.50400002,8.504001 l 212.7776496,0 c 4.678,0 8.48827,-3.82603 8.504,-8.504001 l 0.29686,-88.324714 c 0.0157,-4.6769735 -3.826,-8.50400003 -8.504,-8.50400003 z M 10.296,99.200725 c -2.152,0 -3.897,-1.744 -3.897,-3.898 0,-2.152 1.745,-3.896 3.897,-3.896 2.152,0 3.898,1.744 3.898,3.896 0,2.154 -1.746,3.898 -3.898,3.898 z m 0,-84.897 c -2.152,0 -3.897,-1.745 -3.897,-3.898 0,-2.152 1.745,-3.897 3.897,-3.897 2.152,0 3.898,1.745 3.898,3.897 0,2.153 -1.746,3.898 -3.898,3.898 z m 208.412,84.897 c -2.152,0 -3.898,-1.744 -3.898,-3.898 0,-2.152 1.746,-3.896 3.898,-3.896 2.152,0 3.896,1.744 3.896,3.896 0,2.154 -1.744,3.898 -3.896,3.898 z m 0,-84.897 c -2.152,0 -3.898,-1.745 -3.898,-3.898 0,-2.152 1.746,-3.897 3.898,-3.897 2.152,0 3.896,1.745 3.896,3.897 0,2.153 -1.744,3.898 -3.896,3.898 z" stroke-miterlimit="10" style="stroke-miterlimit:10" stroke="#ffffff" gorn="0.3"  id="silkscreen" fill="none" stroke-width="0.75"/>
    <g transform="translate(0,2.603216)" >
        <g >
            <g >
                <g gorn="0.4.0.0.0"  id="copper1">
                    <g gorn="0.4.0.0.0.0"  id="copper0">
                        <circle r="2.0880001" cx="24.184999" cy="12.919" stroke="#ffbf00" gorn="0.4.0.0.0.0.0"  id="connector0pin" fill="none" stroke-width="1"/>
                        <circle r="2.0880001" cx="31.384001" cy="12.919" stroke="#ffbf00" gorn="0.4.0.0.0.0.1"  id="connector1pin" fill="none" stroke-width="1"/>
                        <circle r="2.0880001" cx="38.584999" cy="12.919" stroke="#ffbf00" gorn="0.4.0.0.0.0.2"  id="connector2pin" fill="none" stroke-width="1"/>
                        <circle r="2.0880001" cx="45.784" cy="12.919" stroke="#ffbf00" gorn="0.4.0.0.0.0.3"  id="connector3pin" fill="none" stroke-width="1"/>
                        <circle r="2.089" cx="52.985001" cy="12.919" stroke="#ffbf00" gorn="0.4.0.0.0.0.4"  id="connector4pin" fill="none" stroke-width="1"/>
                        <circle r="2.0880001" cx="60.185001" cy="12.919" stroke="#ffbf00" gorn="0.4.0.0.0.0.5"  id="connector5pin" fill="none" stroke-width="1"/>
                        <circle r="2.0880001" cx="67.384003" cy="12.919" stroke="#ffbf00" gorn="0.4.0.0.0.0.6"  id="connector6pin" fill="none" stroke-width="1"/>
                        <circle r="2.0880001" cx="74.584999" cy="12.919" stroke="#ffbf00" gorn="0.4.0.0.0.0.7"  id="connector7pin" fill="none" stroke-width="1"/>
                        <circle r="2.0880001" cx="81.783997" cy="12.919" stroke="#ffbf00" gorn="0.4.0.0.0.0.8"  id="connector8pin" fill="none" stroke-width="1"/>
                        <circle r="2.089" cx="88.985001" cy="12.919" stroke="#ffbf00" gorn="0.4.0.0.0.0.9"  id="connector9pin" fill="none" stroke-width="1"/>
                        <circle r="2.0880001" cx="96.184998" cy="12.919" stroke="#ffbf00" gorn="0.4.0.0.0.0.10"  id="connector10pin" fill="none" stroke-width="1"/>
                        <circle r="2.089" cx="103.385" cy="12.919" stroke="#ffbf00" gorn="0.4.0.0.0.0.11"  id="connector11pin" fill="none" stroke-width="1"/>
                        <circle r="2.0880001" cx="110.585" cy="12.919" stroke="#ffbf00" gorn="0.4.0.0.0.0.12"  id="connector12pin" fill="none" stroke-width="1"/>
                        <circle r="2.0880001" cx="117.784" cy="12.919" stroke="#ffbf00" gorn="0.4.0.0.0.0.13"  id="connector13pin" fill="none" stroke-width="1"/>
                        <circle r="2.0880001" cx="124.986" cy="12.919" stroke="#ffbf00" gorn="0.4.0.0.0.0.14"  id="connector14pin" fill="none" stroke-width="1"/>
                        <circle r="2.0880001" cx="132.185" cy="12.919" stroke="#ffbf00" gorn="0.4.0.0.0.0.15"  id="connector15pin" fill="none" stroke-width="1"/>
                        <circle r="2.089" cx="139.38499" cy="12.919" stroke="#ffbf00" gorn="0.4.0.0.0.0.16"  id="connector16pin" fill="none" stroke-width="1"/>
                        <circle r="2.0880001" cx="146.58501" cy="12.919" stroke="#ffbf00" gorn="0.4.0.0.0.0.17"  id="connector17pin" fill="none" stroke-width="1"/>
                        <circle r="2.0880001" cx="153.784" cy="12.919" stroke="#ffbf00" gorn="0.4.0.0.0.0.18"  id="connector18pin" fill="none" stroke-width="1"/>
                        <circle r="2.0880001" cx="160.98599" cy="12.919" stroke="#ffbf00" gorn="0.4.0.0.0.0.19"  id="connector19pin" fill="none" stroke-width="1"/>
                        <circle r="2.0880001" cx="160.98599" cy="5.7199998" stroke="#ffbf00" gorn="0.4.0.0.0.0.20"  id="connector20pin" fill="none" stroke-width="1"/>
                        <circle r="2.0880001" cx="153.784" cy="5.7199998" stroke="#ffbf00" gorn="0.4.0.0.0.0.21"  id="connector21pin" fill="none" stroke-width="1"/>
                        <circle r="2.0880001" cx="146.58501" cy="5.7199998" stroke="#ffbf00" gorn="0.4.0.0.0.0.22"  id="connector22pin" fill="none" stroke-width="1"/>
                        <circle r="2.089" cx="139.38499" cy="5.7199998" stroke="#ffbf00" gorn="0.4.0.0.0.0.23"  id="connector23pin" fill="none" stroke-width="1"/>
                        <circle r="2.0880001" cx="132.185" cy="5.7199998" stroke="#ffbf00" gorn="0.4.0.0.0.0.24"  id="connector24pin" fill="none" stroke-width="1"/>
                        <circle r="2.0880001" cx="124.986" cy="5.7199998" stroke="#ffbf00" gorn="0.4.0.0.0.0.25"  id="connector25pin" fill="none" stroke-width="1"/>
                        <circle r="2.0880001" cx="117.784" cy="5.7199998" stroke="#ffbf00" gorn="0.4.0.0.0.0.26"  id="connector26pin" fill="none" stroke-width="1"/>
                        <circle r="2.0880001" cx="110.585" cy="5.7199998" stroke="#ffbf00" gorn="0.4.0.0.0.0.27"  id="connector27pin" fill="none" stroke-width="1"/>
                        <circle r="2.089" cx="103.385" cy="5.7199998" stroke="#ffbf00" gorn="0.4.0.0.0.0.28"  id="connector28pin" fill="none" stroke-width="1"/>
                        <circle r="2.0880001" cx="96.184998" cy="5.7199998" stroke="#ffbf00" gorn="0.4.0.0.0.0.29"  id="connector29pin" fill="none" stroke-width="1"/>
                        <circle r="2.089" cx="88.985001" cy="5.7199998" stroke="#ffbf00" gorn="0.4.0.0.0.0.30"  id="connector30pin" fill="none" stroke-width="1"/>
                        <circle r="2.0880001" cx="81.783997" cy="5.7199998" stroke="#ffbf00" gorn="0.4.0.0.0.0.31"  id="connector31pin" fill="none" stroke-width="1"/>
                        <circle r="2.0880001" cx="74.584999" cy="5.7199998" stroke="#ffbf00" gorn="0.4.0.0.0.0.32"  id="connector32pin" fill="none" stroke-width="1"/>
                        <circle r="2.0880001" cx="67.384003" cy="5.7199998" stroke="#ffbf00" gorn="0.4.0.0.0.0.33"  id="connector33pin" fill="none" stroke-width="1"/>
                        <circle r="2.0880001" cx="60.185001" cy="5.7199998" stroke="#ffbf00" gorn="0.4.0.0.0.0.34"  id="connector34pin" fill="none" stroke-width="1"/>
                        <circle r="2.089" cx="52.985001" cy="5.7199998" stroke="#ffbf00" gorn="0.4.0.0.0.0.35"  id="connector35pin" fill="none" stroke-width="1"/>
                        <circle r="2.0880001" cx="45.784" cy="5.7199998" stroke="#ffbf00" gorn="0.4.0.0.0.0.36"  id="connector36pin" fill="none" stroke-width="1"/>
                        <circle r="2.0880001" cx="38.584999" cy="5.7199998" stroke="#ffbf00" gorn="0.4.0.0.0.0.37"  id="connector37pin" fill="none" stroke-width="1"/>
                        <circle r="2.0880001" cx="31.384001" cy="5.7199998" stroke="#ffbf00" gorn="0.4.0.0.0.0.38"  id="connector38pin" fill="none" stroke-width="1"/>
                        <circle r="2.0880001" cx="24.184999" cy="5.7199998" stroke="#ffbf00" gorn="0.4.0.0.0.0.39"  id="connector39pin" fill="none" stroke-width="1"/>
                    </g>
                </g>
            </g>
        </g>
    </g>
</svg>
